<svg xmlns="http://www.w3.org/2000/svg" width="124.447" height="38.867" viewBox="0 0 124.447 38.867">
  <g id="Layer_1-2" data-name="Layer 1-2" transform="translate(-821.399 -916.761)">
    <path id="Path_299" data-name="Path 299" d="M821.4,963.176a11.729,11.729,0,0,1,.919-4.584,12.03,12.03,0,0,1,2.661-3.9,11.1,11.1,0,0,1,8.129-3.342,11.445,11.445,0,0,1,4.464.859,11.573,11.573,0,0,1,3.784,2.507,11.827,11.827,0,0,1,2.722,3.855,12.046,12.046,0,0,1,.883,4.607,12.719,12.719,0,0,1-.764,4.5,11.4,11.4,0,0,1-2.268,3.712,11.791,11.791,0,0,1-3.974,2.912,11.611,11.611,0,0,1-4.774.979,11.146,11.146,0,0,1-8.355-3.473,11.935,11.935,0,0,1-3.426-8.63m2.387,0a9.778,9.778,0,0,0,2.733,7.054,8.966,8.966,0,0,0,6.744,2.841,8.727,8.727,0,0,0,6.624-2.877,9.919,9.919,0,0,0,2.7-7.078,9.252,9.252,0,0,0-2.781-6.744,9.011,9.011,0,0,0-6.708-2.829,8.735,8.735,0,0,0-3.079.561,8.986,8.986,0,0,0-2.721,1.587,10,10,0,0,0-2.59,3.4,9.667,9.667,0,0,0-.919,4.106" transform="translate(0 -19.654)" fill="#fff" fill-rule="evenodd"/>
    <path id="Path_300" data-name="Path 300" d="M880.12,954.677v20.757h-2.232V952.421h6.183a14.061,14.061,0,0,1,3.271.31,6.6,6.6,0,0,1,2.268,1.015,6.732,6.732,0,0,1,2.16,2.578,7.518,7.518,0,0,1,.8,3.378,6.983,6.983,0,0,1-1.587,4.6,5.479,5.479,0,0,1-3.974,2.1l5.562,9h-2.685l-6.828-11.1h2.185a4.99,4.99,0,0,0,3.581-1.277,4.345,4.345,0,0,0,1.372-3.295,5.522,5.522,0,0,0-.43-2.208,4.766,4.766,0,0,0-1.194-1.743,3.889,3.889,0,0,0-1.719-.848,14.3,14.3,0,0,0-3.4-.274Z" transform="translate(-32.102 -20.263)" fill="#fff"/>
    <path id="Path_301" data-name="Path 301" d="M922.339,963.784h14.323a12.057,12.057,0,0,1-3.581,8.272,11.327,11.327,0,0,1-8.212,3.222,11.147,11.147,0,0,1-8.355-3.473,11.936,11.936,0,0,1-3.354-8.63,11.681,11.681,0,0,1,.919-4.584,11.938,11.938,0,0,1,2.686-3.9,11.226,11.226,0,0,1,3.784-2.519,12.3,12.3,0,0,1,4.6-.823,11.244,11.244,0,0,1,5.968,1.635,11.773,11.773,0,0,1,4.285,4.607h-2.769a11.092,11.092,0,0,0-3.5-3.044,8.534,8.534,0,0,0-4.141-1,8.964,8.964,0,0,0-6.708,2.852,9.429,9.429,0,0,0-2.745,6.8,9.75,9.75,0,0,0,2.745,7.066,9,9,0,0,0,6.744,2.829,8.725,8.725,0,0,0,5.658-2.065,9.276,9.276,0,0,0,3.271-5.252H922.339Z" transform="translate(-52.143 -19.653)" fill="#fff"/>
    <path id="Path_302" data-name="Path 302" d="M975.112,966.141l-4.357-11.554-4.3,11.554Zm-12.2,9.3h-2.387l8.928-23.013h2.722l8.9,23.013h-2.387l-2.745-7.234H965.67Z" transform="translate(-79.063 -20.268)" fill="#fff" fill-rule="evenodd"/>
    <path id="Path_303" data-name="Path 303" d="M1024.313,972.681l-.274-20.255h2.244v23.013h-2.709l-12.628-20.3.251,20.3h-2.232V952.426h2.721Z" transform="translate(-106.589 -20.267)" fill="#fff"/>
    <path id="Path_304" data-name="Path 304" d="M1056,958.459a9.146,9.146,0,0,1-1.444-.131l-3.951,20.411h3.366l3.915-20.506A12.042,12.042,0,0,1,1056,958.459Z" transform="translate(-130.25 -23.567)" fill="#fff"/>
    <path id="Path_305" data-name="Path 305" d="M1083.2,952.426H1079l-10.1,10.48,2.053-10.36a17.594,17.594,0,0,1-3.736,1.862l-4.118,21.031h3.366l2.387-12.139,7.162,12.139h3.915l-7.161-12.079Z" transform="translate(-137.352 -20.268)" fill="#fff"/>
    <path id="Path_306" data-name="Path 306" d="M1053.345,924.794c1.838-4.452,6.947-8.033,11.351-8.033s6.553,3.581,4.775,8.033-6.911,8.033-11.351,8.033-6.553-3.581-4.714-8.033" transform="translate(-131.467)" fill="#fff"/>
  </g>
</svg>
