<svg xmlns="http://www.w3.org/2000/svg" width="69.764" height="69.766" viewBox="0 0 69.764 69.766">
  <g id="human-resources_1_-01" data-name="human-resources (1)-01" transform="translate(-99.2 -96.212)">
    <path id="Path_20502" data-name="Path 20502" d="M162.141,165.943a8.417,8.417,0,0,1-4.676-2.8c-2.987-3.055-6.024-6.059-9.045-9.062a6.167,6.167,0,0,1-1.655-6.912.757.757,0,0,0-.119-.631c-1.161-1.212-2.355-2.389-3.584-3.6-.2.154-.393.273-.546.41A26.538,26.538,0,0,1,99.473,126.4c-.085-.614-.188-1.246-.273-1.86v-3.55c.1-.666.188-1.331.29-2a26.135,26.135,0,0,1,9.387-16.691,26.489,26.489,0,0,1,33.74-.017,25.55,25.55,0,0,1,9.438,16.862,25.968,25.968,0,0,1-5.581,20.207c-.171.222-.324.427-.529.683,1.229,1.246,2.458,2.492,3.7,3.7.1.1.375.085.546.034a6.152,6.152,0,0,1,6.861,1.621c3.294,3.294,6.588,6.571,9.864,9.881a6.053,6.053,0,0,1,1.178,7.646,5.93,5.93,0,0,1-4.13,2.935c-.154.034-.307.085-.444.119C163.063,165.943,162.6,165.943,162.141,165.943Zm-36.369-20.719a22.477,22.477,0,1,0-22.494-22.476A22.554,22.554,0,0,0,125.772,145.225Zm29.661,10.052q3,3.021,6.007,6.024a1.88,1.88,0,0,0,1.894.495,2.026,2.026,0,0,0,.853-3.5c-1.826-1.86-3.686-3.7-5.53-5.547-.119-.119-.256-.239-.358-.324C157.328,153.382,156.39,154.3,155.434,155.277Zm-.2-5.8a20.363,20.363,0,0,0-1.553-1.638,2.019,2.019,0,0,0-2.9,2.731,22.246,22.246,0,0,0,1.6,1.724C153.386,151.3,154.325,150.379,155.229,149.474Z" fill="#ee7302"/>
    <path id="Path_20503" data-name="Path 20503" d="M201.176,169.708c.973.836,2.014,1.6,2.9,2.526a11.884,11.884,0,0,1,3.294,8.277c.034,1.314.017,2.628,0,3.942a2.049,2.049,0,0,1-2.236,2.184H185.048a1.963,1.963,0,0,1-2.167-1.809,28.656,28.656,0,0,1,.307-7.048,12.037,12.037,0,0,1,5.188-7.475c.239-.171.495-.324.785-.512a8.245,8.245,0,0,1-2.065-7.2,8,8,0,0,1,2.85-4.744,8.19,8.19,0,0,1,11.23,11.861Zm2.065,12.817c.375-3.959-.666-7.236-4.267-9.182a7.7,7.7,0,0,0-8.875.751c-2.782,2.133-3.447,5.1-3.106,8.431Zm-8.158-22.442a4.088,4.088,0,1,0,4.113,4.045A4.135,4.135,0,0,0,195.083,160.083Z" transform="translate(-69.345 -49.588)" fill="#ee7302"/>
  </g>
</svg>
